<svg xmlns="http://www.w3.org/2000/svg" xmlns:xlink="http://www.w3.org/1999/xlink" width="1642pt" height="764pt" viewBox="0 0 1641.59 764"><g id="graph0" class="graph" transform="scale(1 1) rotate(0) translate(4 760)"><title>GG</title><polygon fill="#fff" stroke="transparent" points="-4 4 -4 -760 1637.59 -760 1637.59 4 -4 4"/><g id="node1" class="node"><title>node208</title><polygon fill="none" stroke="#000" points="945.222 -743.562 897.869 -756 850.516 -743.562 850.56 -723.438 945.178 -723.438 945.222 -743.562"/><text x="897.869" y="-734.9" fill="#000" font-family="Times,serif" font-size="12" text-anchor="middle">enclave</text></g><g id="node2" class="node"><title>node2123</title><polygon fill="none" stroke="#000" points="956.869 -684 889.801 -666 956.869 -648 1023.937 -666 956.869 -684"/><text x="956.869" y="-662.9" fill="#000" font-family="Times,serif" font-size="12" text-anchor="middle">oeenclave</text></g><g id="edge1" class="edge"><title>node208-&gt;node2123</title><path fill="none" stroke="#000" d="M909.8087,-723.4297C917.9915,-713.444 929.0084,-699.9995 938.3257,-688.6293"/><polygon fill="#000" stroke="#000" points="941.114 -690.749 944.745 -680.796 935.699 -686.312 941.114 -690.749"/></g><g id="node9" class="node"><title>node2221</title><polygon fill="none" stroke="#000" points="772.869 -252 726.588 -234 772.869 -216 819.15 -234 772.869 -252"/><text x="772.869" y="-230.9" fill="#000" font-family="Times,serif" font-size="12" text-anchor="middle">oelibc</text></g><g id="edge15" class="edge"><title>node208-&gt;node2221</title><path fill="none" stroke="#000" d="M889.6824,-723.3821C876.2166,-697.9252 850.8691,-643.4401 850.8691,-594 850.8691,-594 850.8691,-594 850.8691,-378 850.8691,-337.1184 852.1411,-323.5015 831.8691,-288 823.7244,-273.7364 810.5096,-261.125 798.6492,-251.6843"/><polygon fill="#000" stroke="#000" points="800.428 -248.641 790.344 -245.392 796.201 -254.221 800.428 -248.641"/></g><g id="node3" class="node"><title>node2145</title><polygon fill="none" stroke="#000" points="971.869 -612 882.031 -594 971.869 -576 1061.707 -594 971.869 -612"/><text x="971.869" y="-590.9" fill="#000" font-family="Times,serif" font-size="12" text-anchor="middle">oecryptombed</text></g><g id="edge2" class="edge"><title>node2123-&gt;node2145</title><path fill="none" stroke="#000" d="M960.4239,-648.937C962.1361,-640.7188 964.2316,-630.66 966.1596,-621.4059"/><polygon fill="#000" stroke="#000" points="969.622 -621.944 968.236 -611.441 962.77 -620.517 969.622 -621.944"/></g><g id="node4" class="node"><title>node2212</title><polygon fill="none" stroke="#000" points="1017.369 -540 928.369 -540 928.369 -504 1017.369 -504 1017.369 -540"/><text x="972.869" y="-518.9" fill="#000" font-family="Times,serif" font-size="12" text-anchor="middle">mbedcrypto</text></g><g id="edge3" class="edge"><title>node2145-&gt;node2212</title><path fill="none" stroke="#000" d="M972.1215,-575.8314C972.2284,-568.131 972.3556,-558.9743 972.4745,-550.4166"/><polygon fill="#000" stroke="#000" points="975.974 -550.461 972.613 -540.413 968.975 -550.364 975.974 -550.461"/></g><g id="node5" class="node"><title>node2211</title><polygon fill="none" stroke="#000" points="977.869 -468 921.935 -450 977.869 -432 1033.803 -450 977.869 -468"/><text x="977.869" y="-446.9" fill="#000" font-family="Times,serif" font-size="12" text-anchor="middle">mbedtls</text></g><g id="edge4" class="edge"><title>node2212-&gt;node2211</title><path fill="none" stroke="#000" stroke-dasharray="1 5" d="M974.1309,-503.8314C974.6738,-496.0125 975.3211,-486.6923 975.9232,-478.0221"/><polygon fill="#000" stroke="#000" points="979.424 -478.132 976.625 -467.913 972.441 -477.647 979.424 -478.132"/></g><g id="node6" class="node"><title>node2208</title><polygon fill="none" stroke="#000" points="987.869 -396 919.318 -378 987.869 -360 1056.42 -378 987.869 -396"/><text x="987.869" y="-374.9" fill="#000" font-family="Times,serif" font-size="12" text-anchor="middle">mbedx509</text></g><g id="edge5" class="edge"><title>node2211-&gt;node2208</title><path fill="none" stroke="#000" d="M980.2899,-432.5708C981.4116,-424.4942 982.7719,-414.7004 984.0287,-405.6514"/><polygon fill="#000" stroke="#000" points="987.527 -405.905 985.436 -395.518 980.594 -404.942 987.527 -405.905"/></g><g id="node7" class="node"><title>node2210</title><polygon fill="none" stroke="#000" points="989.869 -324 878.503 -306 989.869 -288 1101.236 -306 989.869 -324"/><text x="989.869" y="-302.9" fill="#000" font-family="Times,serif" font-size="12" text-anchor="middle">mbedcrypto_static</text></g><g id="edge6" class="edge"><title>node2208-&gt;node2210</title><path fill="none" stroke="#000" d="M988.3738,-359.8314C988.5877,-352.131 988.8421,-342.9743 989.0798,-334.4166"/><polygon fill="#000" stroke="#000" points="992.579 -334.507 989.358 -324.413 985.581 -334.312 992.579 -334.507"/></g><g id="node8" class="node"><title>node30</title><polygon fill="none" stroke="#000" points="1073.869 -36 987.869 -36 987.869 0 1073.869 0 1073.869 -36"/><text x="1030.869" y="-14.9" fill="#000" font-family="Times,serif" font-size="12" text-anchor="middle">oe_includes</text></g><g id="edge7" class="edge"><title>node2210-&gt;node30</title><path fill="none" stroke="#000" d="M988.3393,-287.9795C985.5033,-248.177 981.5124,-150.101 1002.8691,-72 1005.3787,-62.8227 1009.5898,-53.4168 1013.9939,-45.0799"/><polygon fill="#000" stroke="#000" points="1017.139 -46.626 1018.968 -36.191 1011.03 -43.208 1017.139 -46.626"/></g><g id="edge8" class="edge"><title>node2210-&gt;node2221</title><path fill="none" stroke="#000" d="M953.0581,-293.7862C912.3704,-280.2861 847.3375,-258.7084 807.5318,-245.501"/><polygon fill="#000" stroke="#000" points="808.579 -242.161 797.985 -242.333 806.374 -248.805 808.579 -242.161"/></g><g id="node10" class="node"><title>node2138</title><polygon fill="none" stroke="#000" points="697.869 -108 647.383 -90 697.869 -72 748.355 -90 697.869 -108"/><text x="697.869" y="-86.9" fill="#000" font-family="Times,serif" font-size="12" text-anchor="middle">oecore</text></g><g id="edge9" class="edge"><title>node2221-&gt;node2138</title><path fill="none" stroke="#000" d="M761.9959,-219.8367C754.1453,-209.227 743.6076,-194.1613 735.8691,-180 724.4091,-159.0283 714.0523,-133.8768 707.0561,-115.5002"/><polygon fill="#000" stroke="#000" points="710.307 -114.201 703.529 -106.058 703.75 -116.65 710.307 -114.201"/></g><g id="node11" class="node"><title>node2222</title><polygon fill="none" stroke="#000" points="942.369 -180 871.369 -180 871.369 -144 942.369 -144 942.369 -180"/><text x="906.869" y="-158.9" fill="#000" font-family="Times,serif" font-size="12" text-anchor="middle">oelibasm</text></g><g id="edge11" class="edge"><title>node2221-&gt;node2222</title><path fill="none" stroke="#000" stroke-dasharray="5 2" d="M792.3539,-223.5306C811.1483,-213.4321 840.2198,-197.8116 864.3676,-184.8366"/><polygon fill="#000" stroke="#000" points="866.197 -187.827 873.35 -180.01 862.884 -181.661 866.197 -187.827"/></g><g id="node12" class="node"><title>node2195</title><polygon fill="none" stroke="#000" points="852.869 -180 744.869 -180 744.869 -144 852.869 -144 852.869 -180"/><text x="798.869" y="-158.9" fill="#000" font-family="Times,serif" font-size="12" text-anchor="middle">oelibc_includes</text></g><g id="edge12" class="edge"><title>node2221-&gt;node2195</title><path fill="none" stroke="#000" d="M778.6394,-218.0209C781.6373,-209.7188 785.3875,-199.3339 788.8417,-189.7683"/><polygon fill="#000" stroke="#000" points="792.186 -190.812 792.29 -180.218 785.602 -188.435 792.186 -190.812"/></g><g id="node13" class="node"><title>node2240</title><polygon fill="none" stroke="#000" points="486.869 -180 425.247 -162 486.869 -144 548.491 -162 486.869 -180"/><text x="486.869" y="-158.9" fill="#000" font-family="Times,serif" font-size="12" text-anchor="middle">oesyscall</text></g><g id="edge13" class="edge"><title>node2221-&gt;node2240</title><path fill="none" stroke="#000" d="M744.6637,-226.8993C694.4405,-214.2557 589.2326,-187.7698 529.9185,-172.8376"/><polygon fill="#000" stroke="#000" points="530.657 -169.414 520.105 -170.367 528.948 -176.202 530.657 -169.414"/></g><g id="edge10" class="edge"><title>node2138-&gt;node30</title><path fill="none" stroke="#000" d="M729.4972,-83.1615C786.673,-70.7992 907.7828,-44.6133 977.8203,-29.47"/><polygon fill="#000" stroke="#000" points="978.735 -32.853 987.769 -27.319 977.256 -26.011 978.735 -32.853"/></g><g id="edge14" class="edge"><title>node2240-&gt;node2138</title><path fill="none" stroke="#000" d="M515.3255,-152.2898C553.3602,-139.3111 620.7699,-116.3088 662.1689,-102.1821"/><polygon fill="#000" stroke="#000" points="663.514 -105.421 671.848 -98.879 661.253 -98.796 663.514 -105.421"/></g><g id="node14" class="node"><title>node103</title><polygon fill="none" stroke="#000" points="1378.222 -167.562 1330.869 -180 1283.516 -167.562 1283.56 -147.438 1378.178 -147.438 1378.222 -167.562"/><text x="1330.869" y="-158.9" fill="#000" font-family="Times,serif" font-size="12" text-anchor="middle">logging</text></g><g id="node15" class="node"><title>node20</title><polygon fill="none" stroke="#000" points="1330.869 -108 1282.364 -90 1330.869 -72 1379.374 -90 1330.869 -108"/><text x="1330.869" y="-86.9" fill="#000" font-family="Times,serif" font-size="12" text-anchor="middle">oehost</text></g><g id="edge16" class="edge"><title>node103-&gt;node20</title><path fill="none" stroke="#000" d="M1330.8691,-147.4297C1330.8691,-139.1011 1330.8691,-128.3665 1330.8691,-118.436"/><polygon fill="#000" stroke="#000" points="1334.369 -118.128 1330.869 -108.128 1327.369 -118.128 1334.369 -118.128"/></g><g id="edge17" class="edge"><title>node20-&gt;node30</title><path fill="none" stroke="#000" d="M1305.349,-81.3927C1295.2989,-78.1842 1283.6114,-74.6754 1272.8691,-72 1192.4833,-51.9797 1167.7017,-57.6544 1083.8226,-36.0532"/><polygon fill="#000" stroke="#000" points="1084.696 -32.664 1074.134 -33.506 1082.916 -39.434 1084.696 -32.664"/></g><g id="node16" class="node"><title>node2341</title><polygon fill="none" stroke="#000" points="1511.869 -36 1433.869 -36 1433.869 0 1511.869 0 1511.869 -36"/><text x="1472.869" y="-14.9" fill="#000" font-family="Times,serif" font-size="12" text-anchor="middle">oedebugrt</text></g><g id="edge18" class="edge"><title>node20-&gt;node2341</title><path fill="none" stroke="#000" stroke-dasharray="5 2" d="M1351.5172,-79.5306C1371.5213,-69.3876 1402.5124,-53.6738 1428.1681,-40.6653"/><polygon fill="#000" stroke="#000" points="1430.012 -43.654 1437.349 -36.01 1426.847 -37.411 1430.012 -43.654"/></g><g id="node17" class="node"><title>node2371</title><ellipse cx="1330.869" cy="-18" fill="none" stroke="#000" rx="84.902" ry="18"/><text x="1330.869" y="-14.9" fill="#000" font-family="Times,serif" font-size="12" text-anchor="middle">openenclave::crypto</text></g><g id="edge19" class="edge"><title>node20-&gt;node2371</title><path fill="none" stroke="#000" stroke-dasharray="5 2" d="M1330.8691,-71.8314C1330.8691,-64.131 1330.8691,-54.9743 1330.8691,-46.4166"/><polygon fill="#000" stroke="#000" points="1334.369 -46.413 1330.869 -36.413 1327.369 -46.413 1334.369 -46.413"/></g><g id="node18" class="node"><title>node2372</title><ellipse cx="1159.869" cy="-18" fill="none" stroke="#000" rx="67.93" ry="18"/><text x="1159.869" y="-14.9" fill="#000" font-family="Times,serif" font-size="12" text-anchor="middle">openenclave::dl</text></g><g id="edge20" class="edge"><title>node20-&gt;node2372</title><path fill="none" stroke="#000" stroke-dasharray="5 2" d="M1307.8073,-80.2898C1281.7538,-69.3199 1238.6929,-51.1889 1205.7284,-37.3091"/><polygon fill="#000" stroke="#000" points="1206.862 -33.989 1196.288 -33.334 1204.146 -40.44 1206.862 -33.989"/></g><g id="node19" class="node"><title>node2309</title><polygon fill="none" stroke="#000" points="1087.869 -108 1011.869 -108 1011.869 -72 1087.869 -72 1087.869 -108"/><text x="1049.869" y="-86.9" fill="#000" font-family="Times,serif" font-size="12" text-anchor="middle">oe_ptrace</text></g><g id="edge21" class="edge"><title>node2309-&gt;node30</title><path fill="none" stroke="#000" d="M1045.0746,-71.8314C1043.0203,-64.0463 1040.5731,-54.7729 1038.2936,-46.1347"/><polygon fill="#000" stroke="#000" points="1041.664 -45.189 1035.728 -36.413 1034.896 -46.975 1041.664 -45.189"/></g><g id="edge22" class="edge"><title>node2309-&gt;node2372</title><path fill="none" stroke="#000" d="M1077.6268,-71.8314C1092.2046,-62.2895 1110.1985,-50.5117 1125.6346,-40.4081"/><polygon fill="#000" stroke="#000" points="1127.932 -43.087 1134.382 -34.682 1124.099 -37.23 1127.932 -43.087"/></g><g id="node20" class="node"><title>node140</title><polygon fill="none" stroke="#000" points="1479.57 -167.562 1437.869 -180 1396.169 -167.562 1396.208 -147.438 1479.531 -147.438 1479.57 -167.562"/><text x="1437.869" y="-158.9" fill="#000" font-family="Times,serif" font-size="12" text-anchor="middle">oeutil</text></g><g id="edge23" class="edge"><title>node140-&gt;node20</title><path fill="none" stroke="#000" d="M1416.2161,-147.4297C1399.0032,-135.8472 1374.875,-119.6114 1356.663,-107.3566"/><polygon fill="#000" stroke="#000" points="1358.505 -104.377 1348.254 -101.698 1354.597 -110.185 1358.505 -104.377"/></g><g id="node21" class="node"><title>node171</title><polygon fill="none" stroke="#000" points="1633.811 -167.562 1565.869 -180 1497.927 -167.562 1497.99 -147.438 1633.748 -147.438 1633.811 -167.562"/><text x="1565.869" y="-158.9" fill="#000" font-family="Times,serif" font-size="12" text-anchor="middle">oecertdump</text></g><g id="edge24" class="edge"><title>node171-&gt;node20</title><path fill="none" stroke="#000" d="M1518.3134,-147.4297C1473.6798,-133.7548 1407.8756,-113.5935 1367.2797,-101.1556"/><polygon fill="#000" stroke="#000" points="1368.117 -97.751 1357.53 -98.168 1366.066 -104.444 1368.117 -97.751"/></g><g id="node22" class="node"><title>node1378</title><polygon fill="none" stroke="#000" points="527.869 -324 479.364 -306 527.869 -288 576.374 -306 527.869 -324"/><text x="527.869" y="-302.9" fill="#000" font-family="Times,serif" font-size="12" text-anchor="middle">oecpio</text></g><g id="edge26" class="edge"><title>node1378-&gt;node2221</title><path fill="none" stroke="#000" stroke-dasharray="5 2" d="M554.1097,-297.7358C564.0454,-294.6384 575.4663,-291.1159 585.8691,-288 637.7979,-272.446 698.0751,-255.1812 735.8472,-244.4572"/><polygon fill="#000" stroke="#000" points="737.213 -247.708 745.879 -241.613 735.303 -240.974 737.213 -247.708"/></g><g id="edge25" class="edge"><title>node1378-&gt;node2138</title><path fill="none" stroke="#000" stroke-dasharray="5 2" d="M552.7482,-297.2205C588.9243,-284.2477 652.5561,-260.5697 659.8691,-252 692.3282,-213.9631 698.2657,-153.3009 698.7071,-117.999"/><polygon fill="#000" stroke="#000" points="702.207 -117.905 698.691 -107.91 695.207 -117.916 702.207 -117.905"/></g><g id="node23" class="node"><title>node18</title><polygon fill="none" stroke="#000" points="1162.369 -180 1083.369 -180 1083.369 -144 1162.369 -144 1162.369 -180"/><text x="1122.869" y="-158.9" fill="#000" font-family="Times,serif" font-size="12" text-anchor="middle">oehost</text></g><g id="edge27" class="edge"><title>node18-&gt;node20</title><path fill="none" stroke="#000" stroke-dasharray="1 5" d="M1162.3836,-147.0633C1165.2513,-146.0158 1168.1024,-144.9854 1170.8691,-144 1213.5432,-128.8021 1262.9919,-112.2779 1295.4908,-101.5652"/><polygon fill="#000" stroke="#000" points="1296.601 -104.885 1305.006 -98.435 1294.413 -98.235 1296.601 -104.885"/></g><g id="node24" class="node"><title>node2291</title><polygon fill="none" stroke="#000" points="74.869 -252 .131 -234 74.869 -216 149.608 -234 74.869 -252"/><text x="74.869" y="-230.9" fill="#000" font-family="Times,serif" font-size="12" text-anchor="middle">oehostepoll</text></g><g id="edge28" class="edge"><title>node2291-&gt;node2240</title><path fill="none" stroke="#000" d="M113.6838,-225.2766C127.8716,-222.1954 144.0686,-218.8024 158.8691,-216 256.5597,-197.5026 371.3149,-179.4452 435.9219,-169.6131"/><polygon fill="#000" stroke="#000" points="436.488 -173.067 445.85 -168.107 435.438 -166.147 436.488 -173.067"/></g><g id="node25" class="node"><title>node2261</title><polygon fill="none" stroke="#000" points="225.869 -252 167.712 -234 225.869 -216 284.026 -234 225.869 -252"/><text x="225.869" y="-230.9" fill="#000" font-family="Times,serif" font-size="12" text-anchor="middle">oehostfs</text></g><g id="edge29" class="edge"><title>node2261-&gt;node2240</title><path fill="none" stroke="#000" d="M256.8342,-225.4579C303.7709,-212.5099 393.0016,-187.8945 445.4659,-173.4216"/><polygon fill="#000" stroke="#000" points="446.421 -176.789 455.13 -170.756 444.56 -170.041 446.421 -176.789"/></g><g id="node26" class="node"><title>node2271</title><polygon fill="none" stroke="#000" points="394.869 -252 302.808 -234 394.869 -216 486.931 -234 394.869 -252"/><text x="394.869" y="-230.9" fill="#000" font-family="Times,serif" font-size="12" text-anchor="middle">oehostresolver</text></g><g id="edge30" class="edge"><title>node2271-&gt;node2240</title><path fill="none" stroke="#000" d="M413.4867,-219.4297C427.3973,-208.5432 446.5606,-193.5458 461.8158,-181.607"/><polygon fill="#000" stroke="#000" points="464.113 -184.254 469.831 -175.334 459.798 -178.741 464.113 -184.254"/></g><g id="node27" class="node"><title>node2281</title><polygon fill="none" stroke="#000" points="577.869 -252 504.613 -234 577.869 -216 651.125 -234 577.869 -252"/><text x="577.869" y="-230.9" fill="#000" font-family="Times,serif" font-size="12" text-anchor="middle">oehostsock</text></g><g id="edge31" class="edge"><title>node2281-&gt;node2240</title><path fill="none" stroke="#000" d="M560.3234,-220.1177C546.5529,-209.2223 527.2049,-193.914 511.8227,-181.7435"/><polygon fill="#000" stroke="#000" points="513.76 -178.813 503.746 -175.353 509.416 -184.303 513.76 -178.813"/></g><g id="node28" class="node"><title>node24</title><polygon fill="none" stroke="#000" points="1184.869 -108 1105.425 -90 1184.869 -72 1264.314 -90 1184.869 -108"/><text x="1184.869" y="-86.9" fill="#000" font-family="Times,serif" font-size="12" text-anchor="middle">oehostverify</text></g><g id="edge32" class="edge"><title>node24-&gt;node30</title><path fill="none" stroke="#000" d="M1158.7451,-77.7862C1136.8675,-67.5577 1105.0719,-52.6922 1078.6596,-40.3436"/><polygon fill="#000" stroke="#000" points="1080.108 -37.157 1069.567 -36.092 1077.143 -43.498 1080.108 -37.157"/></g><g id="edge33" class="edge"><title>node24-&gt;node2371</title><path fill="none" stroke="#000" stroke-dasharray="5 2" d="M1209.9674,-77.6228C1231.3883,-67.0591 1262.6614,-51.6367 1288.0346,-39.1239"/><polygon fill="#000" stroke="#000" points="1289.666 -42.222 1297.086 -34.66 1286.57 -35.944 1289.666 -42.222"/></g><g id="edge34" class="edge"><title>node24-&gt;node2372</title><path fill="none" stroke="#000" stroke-dasharray="5 2" d="M1179.0708,-73.3008C1176.2319,-65.1248 1172.7383,-55.0631 1169.5127,-45.7735"/><polygon fill="#000" stroke="#000" points="1172.748 -44.421 1166.162 -36.122 1166.135 -46.717 1172.748 -44.421"/></g><g id="node29" class="node"><title>node2231</title><polygon fill="none" stroke="#000" points="715.869 -396 658.454 -378 715.869 -360 773.285 -378 715.869 -396"/><text x="715.869" y="-374.9" fill="#000" font-family="Times,serif" font-size="12" text-anchor="middle">oelibcxx</text></g><g id="node30" class="node"><title>node2168</title><polygon fill="none" stroke="#000" points="742.869 -324 688.869 -324 688.869 -288 742.869 -288 742.869 -324"/><text x="715.869" y="-302.9" fill="#000" font-family="Times,serif" font-size="12" text-anchor="middle">libcxx</text></g><g id="edge35" class="edge"><title>node2231-&gt;node2168</title><path fill="none" stroke="#000" d="M715.8691,-359.8314C715.8691,-352.131 715.8691,-342.9743 715.8691,-334.4166"/><polygon fill="#000" stroke="#000" points="719.369 -334.413 715.869 -324.413 712.369 -334.413 719.369 -334.413"/></g><g id="node31" class="node"><title>node2175</title><polygon fill="none" stroke="#000" points="822.869 -324 760.869 -324 760.869 -288 822.869 -288 822.869 -324"/><text x="791.869" y="-302.9" fill="#000" font-family="Times,serif" font-size="12" text-anchor="middle">libcxxrt</text></g><g id="edge37" class="edge"><title>node2231-&gt;node2175</title><path fill="none" stroke="#000" d="M730.1642,-364.4574C740.0404,-355.1009 753.4736,-342.3747 765.2849,-331.1851"/><polygon fill="#000" stroke="#000" points="767.906 -333.523 772.759 -324.105 763.092 -328.441 767.906 -333.523"/></g><g id="node32" class="node"><title>node2185</title><polygon fill="none" stroke="#000" points="670.869 -324 594.869 -324 594.869 -288 670.869 -288 670.869 -324"/><text x="632.869" y="-302.9" fill="#000" font-family="Times,serif" font-size="12" text-anchor="middle">libunwind</text></g><g id="edge39" class="edge"><title>node2231-&gt;node2185</title><path fill="none" stroke="#000" d="M700.2575,-364.4574C689.3688,-355.0118 674.5213,-342.132 661.5339,-330.8658"/><polygon fill="#000" stroke="#000" points="663.587 -328.014 653.74 -324.105 659 -333.301 663.587 -328.014"/></g><g id="edge36" class="edge"><title>node2168-&gt;node2221</title><path fill="none" stroke="#000" d="M730.2527,-287.8314C737.8793,-278.1977 747.3103,-266.2849 755.3599,-256.117"/><polygon fill="#000" stroke="#000" points="758.264 -258.088 761.727 -248.075 752.775 -253.743 758.264 -258.088"/></g><g id="edge38" class="edge"><title>node2175-&gt;node2221</title><path fill="none" stroke="#000" d="M787.0746,-287.8314C784.8701,-279.4774 782.2134,-269.4096 779.7968,-260.252"/><polygon fill="#000" stroke="#000" points="783.143 -259.215 777.207 -250.439 776.375 -261.001 783.143 -259.215"/></g><g id="edge40" class="edge"><title>node2185-&gt;node2221</title><path fill="none" stroke="#000" d="M668.1971,-287.8314C691.4824,-275.856 721.6158,-260.3588 743.5676,-249.0694"/><polygon fill="#000" stroke="#000" points="745.435 -252.045 752.727 -244.359 742.233 -245.82 745.435 -252.045"/></g><g id="node33" class="node"><title>node2103</title><polygon fill="none" stroke="#000" points="1040.483 -743.562 1001.869 -756 963.256 -743.562 963.292 -723.438 1040.447 -723.438 1040.483 -743.562"/><text x="1001.869" y="-734.9" fill="#000" font-family="Times,serif" font-size="12" text-anchor="middle">oesgx</text></g><g id="node34" class="node"><title>node2113</title><polygon fill="none" stroke="#000" points="1265.591 -167.562 1222.869 -180 1180.147 -167.562 1180.187 -147.438 1265.551 -147.438 1265.591 -167.562"/><text x="1222.869" y="-158.9" fill="#000" font-family="Times,serif" font-size="12" text-anchor="middle">oesign</text></g><g id="edge41" class="edge"><title>node2113-&gt;node20</title><path fill="none" stroke="#000" d="M1244.7246,-147.4297C1262.0984,-135.8472 1286.452,-119.6114 1304.8343,-107.3566"/><polygon fill="#000" stroke="#000" points="1306.943 -110.157 1313.322 -101.698 1303.06 -104.333 1306.943 -110.157"/></g><g id="node35" class="node"><title>node187</title><polygon fill="none" stroke="#000" points="1183.369 -756 1058.369 -756 1058.369 -720 1183.369 -720 1183.369 -756"/><text x="1120.869" y="-734.9" fill="#000" font-family="Times,serif" font-size="12" text-anchor="middle">oesign-test-engine</text></g></g></svg>