<svg xmlns="http://www.w3.org/2000/svg" xmlns:xlink="http://www.w3.org/1999/xlink" width="3968" height="764pt" viewBox="0 0 2975.54 764"><g id="graph0" class="graph" transform="scale(1 1) rotate(0) translate(4 760)"><title>GG</title><polygon fill="#fff" stroke="transparent" points="-4 4 -4 -760 2971.542 -760 2971.542 4 -4 4"/><g id="node1" class="node"><title>node208</title><polygon fill="none" stroke="#000" points="1629.175 -743.562 1581.821 -756 1534.468 -743.562 1534.513 -723.438 1629.13 -723.438 1629.175 -743.562"/><text x="1581.821" y="-734.9" fill="#000" font-family="Times,serif" font-size="12" text-anchor="middle">enclave</text></g><g id="node2" class="node"><title>node2129</title><polygon fill="none" stroke="#000" points="1634.821 -684 1567.753 -666 1634.821 -648 1701.889 -666 1634.821 -684"/><text x="1634.821" y="-662.9" fill="#000" font-family="Times,serif" font-size="12" text-anchor="middle">oeenclave</text></g><g id="edge1" class="edge"><title>node208-&gt;node2129</title><path fill="none" stroke="#000" d="M1592.5468,-723.4297C1599.7778,-713.6064 1609.4727,-700.436 1617.7541,-689.1858"/><polygon fill="#000" stroke="#000" points="1620.638 -691.173 1623.747 -681.044 1615 -687.023 1620.638 -691.173"/></g><g id="node9" class="node"><title>node2239</title><polygon fill="none" stroke="#000" points="1536.821 -252 1490.54 -234 1536.821 -216 1583.102 -234 1536.821 -252"/><text x="1536.821" y="-230.9" fill="#000" font-family="Times,serif" font-size="12" text-anchor="middle">oelibc</text></g><g id="edge15" class="edge"><title>node208-&gt;node2239</title><path fill="none" stroke="#000" d="M1572.3461,-723.1126C1557.1014,-697.6901 1528.8214,-643.816 1528.8214,-594 1528.8214,-594 1528.8214,-594 1528.8214,-378 1528.8214,-337.5921 1532.0007,-290.9041 1534.3508,-261.9123"/><polygon fill="#000" stroke="#000" points="1537.858 -261.974 1535.203 -251.717 1530.882 -261.391 1537.858 -261.974"/></g><g id="node3" class="node"><title>node2152</title><polygon fill="none" stroke="#000" points="1716.821 -612 1626.983 -594 1716.821 -576 1806.659 -594 1716.821 -612"/><text x="1716.821" y="-590.9" fill="#000" font-family="Times,serif" font-size="12" text-anchor="middle">oecryptombed</text></g><g id="edge2" class="edge"><title>node2129-&gt;node2152</title><path fill="none" stroke="#000" d="M1650.6319,-652.1177C1662.4587,-641.7331 1678.8512,-627.3397 1692.3636,-615.4752"/><polygon fill="#000" stroke="#000" points="1694.725 -618.059 1699.93 -608.831 1690.107 -612.799 1694.725 -618.059"/></g><g id="node4" class="node"><title>node2219</title><polygon fill="none" stroke="#000" points="1796.321 -540 1707.321 -540 1707.321 -504 1796.321 -504 1796.321 -540"/><text x="1751.821" y="-518.9" fill="#000" font-family="Times,serif" font-size="12" text-anchor="middle">mbedcrypto</text></g><g id="edge3" class="edge"><title>node2152-&gt;node2219</title><path fill="none" stroke="#000" d="M1724.9391,-577.3008C1728.9981,-568.9508 1734.0132,-558.6341 1738.6081,-549.1816"/><polygon fill="#000" stroke="#000" points="1741.788 -550.646 1743.012 -540.122 1735.492 -547.586 1741.788 -550.646"/></g><g id="node5" class="node"><title>node2214</title><polygon fill="none" stroke="#000" points="1890.821 -468 1834.887 -450 1890.821 -432 1946.755 -450 1890.821 -468"/><text x="1890.821" y="-446.9" fill="#000" font-family="Times,serif" font-size="12" text-anchor="middle">mbedtls</text></g><g id="edge4" class="edge"><title>node2219-&gt;node2214</title><path fill="none" stroke="#000" stroke-dasharray="1 5" d="M1786.897,-503.8314C1809.4556,-492.1463 1838.4876,-477.1082 1860.13,-465.8977"/><polygon fill="#000" stroke="#000" points="1861.938 -468.903 1869.208 -461.196 1858.718 -462.687 1861.938 -468.903"/></g><g id="node6" class="node"><title>node2217</title><polygon fill="none" stroke="#000" points="1925.821 -396 1857.27 -378 1925.821 -360 1994.372 -378 1925.821 -396"/><text x="1925.821" y="-374.9" fill="#000" font-family="Times,serif" font-size="12" text-anchor="middle">mbedx509</text></g><g id="edge5" class="edge"><title>node2214-&gt;node2217</title><path fill="none" stroke="#000" d="M1898.4159,-434.3771C1902.8491,-425.2574 1908.5468,-413.5364 1913.5976,-403.1462"/><polygon fill="#000" stroke="#000" points="1916.775 -404.615 1917.999 -394.091 1910.48 -401.555 1916.775 -404.615"/></g><g id="node7" class="node"><title>node2225</title><polygon fill="none" stroke="#000" points="2029.821 -324 1918.455 -306 2029.821 -288 2141.188 -306 2029.821 -324"/><text x="2029.821" y="-302.9" fill="#000" font-family="Times,serif" font-size="12" text-anchor="middle">mbedcrypto_static</text></g><g id="edge6" class="edge"><title>node2217-&gt;node2225</title><path fill="none" stroke="#000" d="M1944.8966,-364.7941C1960.418,-354.0485 1982.5879,-338.7001 2000.3841,-326.3797"/><polygon fill="#000" stroke="#000" points="2002.491 -329.178 2008.721 -320.608 1998.506 -323.423 2002.491 -329.178"/></g><g id="node8" class="node"><title>node30</title><polygon fill="none" stroke="#000" points="2360.821 -36 2274.821 -36 2274.821 0 2360.821 0 2360.821 -36"/><text x="2317.821" y="-14.9" fill="#000" font-family="Times,serif" font-size="12" text-anchor="middle">oe_includes</text></g><g id="edge7" class="edge"><title>node2225-&gt;node30</title><path fill="none" stroke="#000" d="M2101.9846,-299.5881C2167.5462,-292.2108 2257.6066,-277.6731 2281.8214,-252 2335.0472,-195.5689 2329.3609,-95.1662 2322.6967,-46.2942"/><polygon fill="#000" stroke="#000" points="2326.119 -45.511 2321.193 -36.131 2319.194 -46.536 2326.119 -45.511"/></g><g id="edge8" class="edge"><title>node2225-&gt;node2239</title><path fill="none" stroke="#000" d="M1973.4136,-297.1092C1953.3586,-294.062 1930.6034,-290.7341 1909.8214,-288 1768.8005,-269.4473 1730.7977,-282.2772 1591.8214,-252 1584.7641,-250.4625 1577.3332,-248.369 1570.2949,-246.1531"/><polygon fill="#000" stroke="#000" points="1570.947 -242.682 1560.353 -242.869 1568.751 -249.329 1570.947 -242.682"/></g><g id="node10" class="node"><title>node2142</title><polygon fill="none" stroke="#000" points="2124.821 -108 2074.335 -90 2124.821 -72 2175.308 -90 2124.821 -108"/><text x="2124.821" y="-86.9" fill="#000" font-family="Times,serif" font-size="12" text-anchor="middle">oecore</text></g><g id="edge9" class="edge"><title>node2239-&gt;node2142</title><path fill="none" stroke="#000" d="M1561.6663,-225.6233C1571.0836,-222.5129 1581.9208,-219.0109 1591.8214,-216 1704.9001,-181.6112 1732.8326,-171.3304 1847.8214,-144 1929.0999,-124.6818 2024.9924,-107.1415 2079.9735,-97.5809"/><polygon fill="#000" stroke="#000" points="2080.822 -100.986 2090.079 -95.834 2079.629 -94.089 2080.822 -100.986"/></g><g id="node11" class="node"><title>node2238</title><polygon fill="none" stroke="#000" points="1580.321 -180 1509.321 -180 1509.321 -144 1580.321 -144 1580.321 -180"/><text x="1544.821" y="-158.9" fill="#000" font-family="Times,serif" font-size="12" text-anchor="middle">oelibasm</text></g><g id="edge11" class="edge"><title>node2239-&gt;node2238</title><path fill="none" stroke="#000" stroke-dasharray="5 2" d="M1538.758,-216.5708C1539.6421,-208.6139 1540.7114,-198.9902 1541.7043,-190.054"/><polygon fill="#000" stroke="#000" points="1545.193 -190.346 1542.819 -180.021 1538.236 -189.573 1545.193 -190.346"/></g><g id="node12" class="node"><title>node2206</title><polygon fill="none" stroke="#000" points="1490.821 -180 1382.821 -180 1382.821 -144 1490.821 -144 1490.821 -180"/><text x="1436.821" y="-158.9" fill="#000" font-family="Times,serif" font-size="12" text-anchor="middle">oelibc_includes</text></g><g id="edge12" class="edge"><title>node2239-&gt;node2206</title><path fill="none" stroke="#000" d="M1520.3085,-222.1107C1506.7979,-212.3831 1487.2501,-198.3087 1470.4657,-186.2239"/><polygon fill="#000" stroke="#000" points="1472.148 -183.122 1461.987 -180.119 1468.057 -188.803 1472.148 -183.122"/></g><g id="node13" class="node"><title>node2259</title><polygon fill="none" stroke="#000" points="1918.821 -180 1857.2 -162 1918.821 -144 1980.443 -162 1918.821 -180"/><text x="1918.821" y="-158.9" fill="#000" font-family="Times,serif" font-size="12" text-anchor="middle">oesyscall</text></g><g id="edge13" class="edge"><title>node2239-&gt;node2259</title><path fill="none" stroke="#000" d="M1560.9585,-225.2173C1570.4806,-221.986 1581.5744,-218.5073 1591.8214,-216 1686.5204,-192.8282 1799.1091,-176.6743 1864.4231,-168.3991"/><polygon fill="#000" stroke="#000" points="1865.002 -171.854 1874.49 -167.139 1864.132 -164.908 1865.002 -171.854"/></g><g id="edge10" class="edge"><title>node2142-&gt;node30</title><path fill="none" stroke="#000" d="M2149.6577,-80.7347C2178.6295,-69.9265 2227.3445,-51.753 2264.9063,-37.7404"/><polygon fill="#000" stroke="#000" points="2266.541 -40.866 2274.687 -34.092 2264.094 -34.308 2266.541 -40.866"/></g><g id="edge14" class="edge"><title>node2259-&gt;node2142</title><path fill="none" stroke="#000" d="M1947.0329,-152.1397C1984.1108,-139.1804 2049.2418,-116.4162 2089.539,-102.3317"/><polygon fill="#000" stroke="#000" points="2090.932 -105.553 2099.217 -98.949 2088.622 -98.945 2090.932 -105.553"/></g><g id="node14" class="node"><title>node103</title><polygon fill="none" stroke="#000" points="2712.175 -167.562 2664.821 -180 2617.468 -167.562 2617.512 -147.438 2712.13 -147.438 2712.175 -167.562"/><text x="2664.821" y="-158.9" fill="#000" font-family="Times,serif" font-size="12" text-anchor="middle">logging</text></g><g id="node15" class="node"><title>node20</title><polygon fill="none" stroke="#000" points="2664.821 -108 2616.316 -90 2664.821 -72 2713.327 -90 2664.821 -108"/><text x="2664.821" y="-86.9" fill="#000" font-family="Times,serif" font-size="12" text-anchor="middle">oehost</text></g><g id="edge16" class="edge"><title>node103-&gt;node20</title><path fill="none" stroke="#000" d="M2664.8214,-147.4297C2664.8214,-139.1011 2664.8214,-128.3665 2664.8214,-118.436"/><polygon fill="#000" stroke="#000" points="2668.322 -118.128 2664.821 -108.128 2661.322 -118.128 2668.322 -118.128"/></g><g id="edge17" class="edge"><title>node20-&gt;node30</title><path fill="none" stroke="#000" d="M2639.3295,-81.2772C2629.283,-78.0536 2617.5906,-74.5647 2606.8214,-72 2512.9978,-49.6562 2487.3252,-55.2655 2392.8214,-36 2385.6952,-34.5473 2378.217,-32.9007 2370.8568,-31.208"/><polygon fill="#000" stroke="#000" points="2371.472 -27.758 2360.938 -28.885 2369.876 -34.573 2371.472 -27.758"/></g><g id="node16" class="node"><title>node2364</title><polygon fill="none" stroke="#000" points="2821.821 -36 2743.821 -36 2743.821 0 2821.821 0 2821.821 -36"/><text x="2782.821" y="-14.9" fill="#000" font-family="Times,serif" font-size="12" text-anchor="middle">oedebugrt</text></g><g id="edge18" class="edge"><title>node20-&gt;node2364</title><path fill="none" stroke="#000" stroke-dasharray="5 2" d="M2683.2589,-78.75C2699.5205,-68.8277 2723.75,-54.0436 2744.2349,-41.5443"/><polygon fill="#000" stroke="#000" points="2746.332 -44.365 2753.045 -36.169 2742.686 -38.39 2746.332 -44.365"/></g><g id="node17" class="node"><title>node2394</title><ellipse cx="2640.821" cy="-18" fill="none" stroke="#000" rx="84.902" ry="18"/><text x="2640.821" y="-14.9" fill="#000" font-family="Times,serif" font-size="12" text-anchor="middle">openenclave::crypto</text></g><g id="edge19" class="edge"><title>node20-&gt;node2394</title><path fill="none" stroke="#000" stroke-dasharray="5 2" d="M2659.3755,-73.6621C2656.6332,-65.4353 2653.2323,-55.2325 2650.0941,-45.8179"/><polygon fill="#000" stroke="#000" points="2653.318 -44.422 2646.836 -36.042 2646.677 -46.636 2653.318 -44.422"/></g><g id="node18" class="node"><title>node2395</title><ellipse cx="2469.821" cy="-18" fill="none" stroke="#000" rx="67.93" ry="18"/><text x="2469.821" y="-14.9" fill="#000" font-family="Times,serif" font-size="12" text-anchor="middle">openenclave::dl</text></g><g id="edge20" class="edge"><title>node20-&gt;node2395</title><path fill="none" stroke="#000" stroke-dasharray="5 2" d="M2640.1246,-80.8812C2609.7973,-69.6834 2557.6366,-50.4241 2519.0115,-36.1625"/><polygon fill="#000" stroke="#000" points="2520.098 -32.833 2509.505 -32.652 2517.673 -39.4 2520.098 -32.833"/></g><g id="node19" class="node"><title>node2221</title><polygon fill="none" stroke="#000" points="1419.321 -540 1290.321 -540 1290.321 -504 1419.321 -504 1419.321 -540"/><text x="1354.821" y="-518.9" fill="#000" font-family="Times,serif" font-size="12" text-anchor="middle">mbedcrypto-lvi-cfg</text></g><g id="node20" class="node"><title>node2215</title><polygon fill="none" stroke="#000" points="1354.821 -468 1264.243 -450 1354.821 -432 1445.4 -450 1354.821 -468"/><text x="1354.821" y="-446.9" fill="#000" font-family="Times,serif" font-size="12" text-anchor="middle">mbedtls-lvi-cfg</text></g><g id="edge21" class="edge"><title>node2221-&gt;node2215</title><path fill="none" stroke="#000" stroke-dasharray="1 5" d="M1354.8214,-503.8314C1354.8214,-496.131 1354.8214,-486.9743 1354.8214,-478.4166"/><polygon fill="#000" stroke="#000" points="1358.322 -478.413 1354.821 -468.413 1351.322 -478.413 1358.322 -478.413"/></g><g id="node21" class="node"><title>node2227</title><polygon fill="none" stroke="#000" points="1354.821 -396 1251.125 -378 1354.821 -360 1458.517 -378 1354.821 -396"/><text x="1354.821" y="-374.9" fill="#000" font-family="Times,serif" font-size="12" text-anchor="middle">mbedx509-lvi-cfg</text></g><g id="edge22" class="edge"><title>node2215-&gt;node2227</title><path fill="none" stroke="#000" d="M1354.8214,-431.8314C1354.8214,-424.131 1354.8214,-414.9743 1354.8214,-406.4166"/><polygon fill="#000" stroke="#000" points="1358.322 -406.413 1354.821 -396.413 1351.322 -406.413 1358.322 -406.413"/></g><g id="node22" class="node"><title>node2216</title><polygon fill="none" stroke="#000" points="1354.821 -324 1208.809 -306 1354.821 -288 1500.834 -306 1354.821 -324"/><text x="1354.821" y="-302.9" fill="#000" font-family="Times,serif" font-size="12" text-anchor="middle">mbedcrypto_static-lvi-cfg</text></g><g id="edge23" class="edge"><title>node2227-&gt;node2216</title><path fill="none" stroke="#000" d="M1354.8214,-359.8314C1354.8214,-352.131 1354.8214,-342.9743 1354.8214,-334.4166"/><polygon fill="#000" stroke="#000" points="1358.322 -334.413 1354.821 -324.413 1351.322 -334.413 1358.322 -334.413"/></g><g id="edge24" class="edge"><title>node2216-&gt;node30</title><path fill="none" stroke="#000" d="M1350.7419,-288.4728C1344.1536,-255.2486 1335.4849,-182.9525 1373.8214,-144 1436.9202,-79.8873 2074.9126,-33.7241 2264.7873,-21.3237"/><polygon fill="#000" stroke="#000" points="2265.054 -24.814 2274.806 -20.674 2264.601 -17.829 2265.054 -24.814"/></g><g id="node23" class="node"><title>node2237</title><polygon fill="none" stroke="#000" points="1068.821 -252 987.895 -234 1068.821 -216 1149.748 -234 1068.821 -252"/><text x="1068.821" y="-230.9" fill="#000" font-family="Times,serif" font-size="12" text-anchor="middle">oelibc-lvi-cfg</text></g><g id="edge25" class="edge"><title>node2216-&gt;node2237</title><path fill="none" stroke="#000" d="M1306.6288,-293.8676C1253.8355,-280.577 1169.665,-259.3872 1116.9121,-246.1067"/><polygon fill="#000" stroke="#000" points="1117.673 -242.689 1107.121 -243.642 1115.964 -249.477 1117.673 -242.689"/></g><g id="edge29" class="edge"><title>node2237-&gt;node2206</title><path fill="none" stroke="#000" d="M1112.1179,-225.529C1176.4457,-212.9431 1297.686,-189.2221 1372.4388,-174.5966"/><polygon fill="#000" stroke="#000" points="1373.525 -177.95 1382.667 -172.595 1372.181 -171.081 1373.525 -177.95"/></g><g id="node24" class="node"><title>node2147</title><polygon fill="none" stroke="#000" points="978.821 -108 893.689 -90 978.821 -72 1063.954 -90 978.821 -108"/><text x="978.821" y="-86.9" fill="#000" font-family="Times,serif" font-size="12" text-anchor="middle">oecore-lvi-cfg</text></g><g id="edge26" class="edge"><title>node2237-&gt;node2147</title><path fill="none" stroke="#000" d="M1051.6795,-219.2682C1040.6332,-209.0931 1026.5664,-194.7764 1016.8214,-180 1003.8216,-160.2883 993.7227,-135.399 987.2142,-116.7932"/><polygon fill="#000" stroke="#000" points="990.483 -115.534 983.972 -107.176 983.85 -117.77 990.483 -115.534"/></g><g id="node25" class="node"><title>node2241</title><polygon fill="none" stroke="#000" points="1137.321 -180 1026.321 -180 1026.321 -144 1137.321 -144 1137.321 -180"/><text x="1081.821" y="-158.9" fill="#000" font-family="Times,serif" font-size="12" text-anchor="middle">oelibasm-lvi-cfg</text></g><g id="edge28" class="edge"><title>node2237-&gt;node2241</title><path fill="none" stroke="#000" stroke-dasharray="5 2" d="M1071.9684,-216.5708C1073.405,-208.6139 1075.1426,-198.9902 1076.7561,-190.054"/><polygon fill="#000" stroke="#000" points="1080.235 -190.483 1078.568 -180.021 1073.347 -189.24 1080.235 -190.483"/></g><g id="node26" class="node"><title>node2263</title><polygon fill="none" stroke="#000" points="685.821 -180 588.313 -162 685.821 -144 783.33 -162 685.821 -180"/><text x="685.821" y="-158.9" fill="#000" font-family="Times,serif" font-size="12" text-anchor="middle">oesyscall-lvi-cfg</text></g><g id="edge30" class="edge"><title>node2237-&gt;node2263</title><path fill="none" stroke="#000" d="M1024.8865,-225.7407C955.78,-212.7494 821.62,-187.5287 744.3908,-173.0104"/><polygon fill="#000" stroke="#000" points="744.818 -169.53 734.344 -171.122 743.525 -176.409 744.818 -169.53"/></g><g id="edge27" class="edge"><title>node2147-&gt;node30</title><path fill="none" stroke="#000" d="M1047.0635,-86.3305C1281.9852,-73.6984 2054.3319,-32.1682 2264.5737,-20.8632"/><polygon fill="#000" stroke="#000" points="2264.938 -24.349 2274.736 -20.317 2264.562 -17.359 2264.938 -24.349"/></g><g id="edge31" class="edge"><title>node2263-&gt;node2147</title><path fill="none" stroke="#000" d="M727.8012,-151.6842C781.092,-138.5888 872.8838,-116.0324 929.4699,-102.1273"/><polygon fill="#000" stroke="#000" points="930.39 -105.505 939.266 -99.72 928.719 -98.708 930.39 -105.505"/></g><g id="node27" class="node"><title>node2332</title><polygon fill="none" stroke="#000" points="2421.821 -108 2345.821 -108 2345.821 -72 2421.821 -72 2421.821 -108"/><text x="2383.821" y="-86.9" fill="#000" font-family="Times,serif" font-size="12" text-anchor="middle">oe_ptrace</text></g><g id="edge32" class="edge"><title>node2332-&gt;node30</title><path fill="none" stroke="#000" d="M2367.1669,-71.8314C2359.41,-63.3694 2350.0413,-53.1489 2341.5604,-43.8971"/><polygon fill="#000" stroke="#000" points="2344.038 -41.42 2334.7 -36.413 2338.878 -46.15 2344.038 -41.42"/></g><g id="edge33" class="edge"><title>node2332-&gt;node2395</title><path fill="none" stroke="#000" d="M2405.5229,-71.8314C2416.4388,-62.6924 2429.8047,-51.5024 2441.5171,-41.6967"/><polygon fill="#000" stroke="#000" points="2443.89 -44.275 2449.311 -35.172 2439.397 -38.907 2443.89 -44.275"/></g><g id="node28" class="node"><title>node140</title><polygon fill="none" stroke="#000" points="2813.522 -167.562 2771.821 -180 2730.121 -167.562 2730.16 -147.438 2813.483 -147.438 2813.522 -167.562"/><text x="2771.821" y="-158.9" fill="#000" font-family="Times,serif" font-size="12" text-anchor="middle">oeutil</text></g><g id="edge34" class="edge"><title>node140-&gt;node20</title><path fill="none" stroke="#000" d="M2750.1684,-147.4297C2732.9555,-135.8472 2708.8273,-119.6114 2690.6153,-107.3566"/><polygon fill="#000" stroke="#000" points="2692.457 -104.377 2682.206 -101.698 2688.549 -110.185 2692.457 -104.377"/></g><g id="node29" class="node"><title>node171</title><polygon fill="none" stroke="#000" points="2967.764 -167.562 2899.821 -180 2831.879 -167.562 2831.943 -147.438 2967.7 -147.438 2967.764 -167.562"/><text x="2899.821" y="-158.9" fill="#000" font-family="Times,serif" font-size="12" text-anchor="middle">oecertdump</text></g><g id="edge35" class="edge"><title>node171-&gt;node20</title><path fill="none" stroke="#000" d="M2852.2657,-147.4297C2807.6321,-133.7548 2741.8279,-113.5935 2701.232,-101.1556"/><polygon fill="#000" stroke="#000" points="2702.069 -97.751 2691.482 -98.168 2700.018 -104.444 2702.069 -97.751"/></g><g id="node30" class="node"><title>node1382</title><polygon fill="none" stroke="#000" points="1851.821 -324 1803.316 -306 1851.821 -288 1900.327 -306 1851.821 -324"/><text x="1851.821" y="-302.9" fill="#000" font-family="Times,serif" font-size="12" text-anchor="middle">oecpio</text></g><g id="edge37" class="edge"><title>node1382-&gt;node2239</title><path fill="none" stroke="#000" stroke-dasharray="5 2" d="M1826.3164,-297.3317C1816.2681,-294.1152 1804.5781,-290.6169 1793.8214,-288 1705.2135,-266.4435 1680.2612,-274.2366 1591.8214,-252 1584.9476,-250.2717 1577.6855,-248.129 1570.7711,-245.9316"/><polygon fill="#000" stroke="#000" points="1571.568 -242.51 1560.975 -242.715 1569.384 -249.16 1571.568 -242.51"/></g><g id="edge36" class="edge"><title>node1382-&gt;node2142</title><path fill="none" stroke="#000" stroke-dasharray="5 2" d="M1876.6613,-297.1003C1886.8228,-293.7736 1898.7686,-290.2585 1909.8214,-288 1986.6432,-272.3024 2208.2823,-310.2034 2260.8214,-252 2308.0585,-199.6703 2207.9707,-134.7244 2154.9515,-105.5114"/><polygon fill="#000" stroke="#000" points="2156.414 -102.323 2145.952 -100.646 2153.085 -108.481 2156.414 -102.323"/></g><g id="node31" class="node"><title>node1381</title><polygon fill="none" stroke="#000" points="740.821 -324 656.431 -306 740.821 -288 825.212 -306 740.821 -324"/><text x="740.821" y="-302.9" fill="#000" font-family="Times,serif" font-size="12" text-anchor="middle">oecpio-lvi-cfg</text></g><g id="edge39" class="edge"><title>node1381-&gt;node2237</title><path fill="none" stroke="#000" stroke-dasharray="5 2" d="M782.696,-296.808C842.778,-283.6193 953.3104,-259.3561 1017.9955,-245.1569"/><polygon fill="#000" stroke="#000" points="1018.952 -248.53 1027.969 -242.968 1017.451 -241.693 1018.952 -248.53"/></g><g id="edge38" class="edge"><title>node1381-&gt;node2147</title><path fill="none" stroke="#000" stroke-dasharray="5 2" d="M783.5134,-296.9116C838.8997,-284.7535 929.7882,-263.407 940.8214,-252 975.7679,-215.8697 980.764,-154.0141 980.3792,-118.0948"/><polygon fill="#000" stroke="#000" points="983.871 -117.743 980.114 -107.837 976.874 -117.924 983.871 -117.743"/></g><g id="node32" class="node"><title>node2156</title><polygon fill="none" stroke="#000" points="1354.821 -612 1230.338 -594 1354.821 -576 1479.305 -594 1354.821 -612"/><text x="1354.821" y="-590.9" fill="#000" font-family="Times,serif" font-size="12" text-anchor="middle">oecryptombed-lvi-cfg</text></g><g id="edge40" class="edge"><title>node2156-&gt;node2221</title><path fill="none" stroke="#000" d="M1354.8214,-575.8314C1354.8214,-568.131 1354.8214,-558.9743 1354.8214,-550.4166"/><polygon fill="#000" stroke="#000" points="1358.322 -550.413 1354.821 -540.413 1351.322 -550.413 1358.322 -550.413"/></g><g id="node33" class="node"><title>node2128</title><polygon fill="none" stroke="#000" points="1354.821 -684 1253.108 -666 1354.821 -648 1456.535 -666 1354.821 -684"/><text x="1354.821" y="-662.9" fill="#000" font-family="Times,serif" font-size="12" text-anchor="middle">oeenclave-lvi-cfg</text></g><g id="edge41" class="edge"><title>node2128-&gt;node2156</title><path fill="none" stroke="#000" d="M1354.8214,-647.8314C1354.8214,-640.131 1354.8214,-630.9743 1354.8214,-622.4166"/><polygon fill="#000" stroke="#000" points="1358.322 -622.413 1354.821 -612.413 1351.322 -622.413 1358.322 -622.413"/></g><g id="node34" class="node"><title>node18</title><polygon fill="none" stroke="#000" points="2496.321 -180 2417.321 -180 2417.321 -144 2496.321 -144 2496.321 -180"/><text x="2456.821" y="-158.9" fill="#000" font-family="Times,serif" font-size="12" text-anchor="middle">oehost</text></g><g id="edge42" class="edge"><title>node18-&gt;node20</title><path fill="none" stroke="#000" stroke-dasharray="1 5" d="M2496.3359,-147.0633C2499.2036,-146.0158 2502.0547,-144.9854 2504.8214,-144 2547.4955,-128.8021 2596.9442,-112.2779 2629.4431,-101.5652"/><polygon fill="#000" stroke="#000" points="2630.553 -104.885 2638.959 -98.435 2628.366 -98.235 2630.553 -104.885"/></g><g id="node35" class="node"><title>node2313</title><polygon fill="none" stroke="#000" points="2176.821 -252 2102.083 -234 2176.821 -216 2251.56 -234 2176.821 -252"/><text x="2176.821" y="-230.9" fill="#000" font-family="Times,serif" font-size="12" text-anchor="middle">oehostepoll</text></g><g id="edge43" class="edge"><title>node2313-&gt;node2259</title><path fill="none" stroke="#000" d="M2142.0264,-224.2898C2094.9297,-211.1465 2010.9976,-187.7236 1960.563,-173.6488"/><polygon fill="#000" stroke="#000" points="1961.212 -170.196 1950.639 -170.879 1959.33 -176.939 1961.212 -170.196"/></g><g id="node36" class="node"><title>node2311</title><polygon fill="none" stroke="#000" points="345.821 -252 235.937 -234 345.821 -216 455.706 -234 345.821 -252"/><text x="345.821" y="-230.9" fill="#000" font-family="Times,serif" font-size="12" text-anchor="middle">oehostepoll-lvi-cfg</text></g><g id="edge44" class="edge"><title>node2311-&gt;node2263</title><path fill="none" stroke="#000" d="M393.814,-223.8369C456.0179,-210.6643 564.284,-187.7373 630.0666,-173.8069"/><polygon fill="#000" stroke="#000" points="631.188 -177.147 640.246 -171.651 629.738 -170.299 631.188 -177.147"/></g><g id="node37" class="node"><title>node2280</title><polygon fill="none" stroke="#000" points="1658.821 -252 1600.664 -234 1658.821 -216 1716.978 -234 1658.821 -252"/><text x="1658.821" y="-230.9" fill="#000" font-family="Times,serif" font-size="12" text-anchor="middle">oehostfs</text></g><g id="edge45" class="edge"><title>node2280-&gt;node2259</title><path fill="none" stroke="#000" d="M1689.6679,-225.4579C1736.2983,-212.5449 1824.8334,-188.0275 1877.1523,-173.5392"/><polygon fill="#000" stroke="#000" points="1878.093 -176.911 1886.796 -170.869 1876.224 -170.164 1878.093 -176.911"/></g><g id="node38" class="node"><title>node2279</title><polygon fill="none" stroke="#000" points="566.821 -252 473.519 -234 566.821 -216 660.124 -234 566.821 -252"/><text x="566.821" y="-230.9" fill="#000" font-family="Times,serif" font-size="12" text-anchor="middle">oehostfs-lvi-cfg</text></g><g id="edge46" class="edge"><title>node2279-&gt;node2263</title><path fill="none" stroke="#000" d="M589.4845,-220.2879C607.8121,-209.1989 633.8274,-193.4586 654.2046,-181.1295"/><polygon fill="#000" stroke="#000" points="656.093 -184.078 662.837 -175.906 652.47 -178.089 656.093 -184.078"/></g><g id="node39" class="node"><title>node2293</title><polygon fill="none" stroke="#000" points="1827.821 -252 1735.76 -234 1827.821 -216 1919.883 -234 1827.821 -252"/><text x="1827.821" y="-230.9" fill="#000" font-family="Times,serif" font-size="12" text-anchor="middle">oehostresolver</text></g><g id="edge47" class="edge"><title>node2293-&gt;node2259</title><path fill="none" stroke="#000" d="M1846.2366,-219.4297C1859.996,-208.5432 1878.951,-193.5458 1894.0404,-181.607"/><polygon fill="#000" stroke="#000" points="1896.298 -184.284 1901.968 -175.334 1891.954 -178.794 1896.298 -184.284"/></g><g id="node40" class="node"><title>node2290</title><polygon fill="none" stroke="#000" points="804.821 -252 677.615 -234 804.821 -216 932.028 -234 804.821 -252"/><text x="804.821" y="-230.9" fill="#000" font-family="Times,serif" font-size="12" text-anchor="middle">oehostresolver-lvi-cfg</text></g><g id="edge48" class="edge"><title>node2290-&gt;node2263</title><path fill="none" stroke="#000" d="M780.4529,-219.256C762.291,-208.2673 737.3253,-193.162 717.597,-181.2256"/><polygon fill="#000" stroke="#000" points="719.312 -178.173 708.944 -175.99 715.688 -184.162 719.312 -178.173"/></g><g id="node41" class="node"><title>node2302</title><polygon fill="none" stroke="#000" points="2010.821 -252 1937.565 -234 2010.821 -216 2084.078 -234 2010.821 -252"/><text x="2010.821" y="-230.9" fill="#000" font-family="Times,serif" font-size="12" text-anchor="middle">oehostsock</text></g><g id="edge49" class="edge"><title>node2302-&gt;node2259</title><path fill="none" stroke="#000" d="M1993.0829,-220.1177C1979.0729,-209.1534 1959.3526,-193.7201 1943.7544,-181.5128"/><polygon fill="#000" stroke="#000" points="1945.608 -178.519 1935.575 -175.112 1941.293 -184.031 1945.608 -178.519"/></g><g id="node42" class="node"><title>node2301</title><polygon fill="none" stroke="#000" points="108.821 -252 .178 -234 108.821 -216 217.465 -234 108.821 -252"/><text x="108.821" y="-230.9" fill="#000" font-family="Times,serif" font-size="12" text-anchor="middle">oehostsock-lvi-cfg</text></g><g id="edge50" class="edge"><title>node2301-&gt;node2263</title><path fill="none" stroke="#000" d="M164.291,-225.1379C184.012,-222.0933 206.3875,-218.7597 226.8214,-216 363.2975,-197.5683 523.0949,-179.5785 613.5955,-169.7232"/><polygon fill="#000" stroke="#000" points="614.182 -173.18 623.745 -168.62 613.425 -166.221 614.182 -173.18"/></g><g id="node43" class="node"><title>node24</title><polygon fill="none" stroke="#000" points="2518.821 -108 2439.377 -90 2518.821 -72 2598.266 -90 2518.821 -108"/><text x="2518.821" y="-86.9" fill="#000" font-family="Times,serif" font-size="12" text-anchor="middle">oehostverify</text></g><g id="edge51" class="edge"><title>node24-&gt;node30</title><path fill="none" stroke="#000" d="M2487.8557,-78.9078C2456.7206,-67.7549 2408.1215,-50.3463 2370.8406,-36.9919"/><polygon fill="#000" stroke="#000" points="2371.732 -33.594 2361.138 -33.516 2369.372 -40.184 2371.732 -33.594"/></g><g id="edge52" class="edge"><title>node24-&gt;node2394</title><path fill="none" stroke="#000" stroke-dasharray="5 2" d="M2540.9147,-76.9613C2558.261,-66.7242 2582.8111,-52.2356 2603.2338,-40.1829"/><polygon fill="#000" stroke="#000" points="2605.159 -43.111 2611.992 -35.014 2601.602 -37.082 2605.159 -43.111"/></g><g id="edge53" class="edge"><title>node24-&gt;node2395</title><path fill="none" stroke="#000" stroke-dasharray="5 2" d="M2508.1892,-74.3771C2502.2242,-65.6122 2494.6239,-54.4445 2487.764,-44.3646"/><polygon fill="#000" stroke="#000" points="2490.506 -42.172 2481.986 -35.874 2484.719 -46.111 2490.506 -42.172"/></g><g id="node44" class="node"><title>node2248</title><polygon fill="none" stroke="#000" points="1677.821 -396 1620.406 -378 1677.821 -360 1735.237 -378 1677.821 -396"/><text x="1677.821" y="-374.9" fill="#000" font-family="Times,serif" font-size="12" text-anchor="middle">oelibcxx</text></g><g id="node45" class="node"><title>node2178</title><polygon fill="none" stroke="#000" points="1704.821 -324 1650.821 -324 1650.821 -288 1704.821 -288 1704.821 -324"/><text x="1677.821" y="-302.9" fill="#000" font-family="Times,serif" font-size="12" text-anchor="middle">libcxx</text></g><g id="edge54" class="edge"><title>node2248-&gt;node2178</title><path fill="none" stroke="#000" d="M1677.8214,-359.8314C1677.8214,-352.131 1677.8214,-342.9743 1677.8214,-334.4166"/><polygon fill="#000" stroke="#000" points="1681.322 -334.413 1677.821 -324.413 1674.322 -334.413 1681.322 -334.413"/></g><g id="node46" class="node"><title>node2185</title><polygon fill="none" stroke="#000" points="1784.821 -324 1722.821 -324 1722.821 -288 1784.821 -288 1784.821 -324"/><text x="1753.821" y="-302.9" fill="#000" font-family="Times,serif" font-size="12" text-anchor="middle">libcxxrt</text></g><g id="edge56" class="edge"><title>node2248-&gt;node2185</title><path fill="none" stroke="#000" d="M1692.1165,-364.4574C1701.9927,-355.1009 1715.4259,-342.3747 1727.2371,-331.1851"/><polygon fill="#000" stroke="#000" points="1729.859 -333.523 1734.711 -324.105 1725.044 -328.441 1729.859 -333.523"/></g><g id="node47" class="node"><title>node2196</title><polygon fill="none" stroke="#000" points="1632.821 -324 1556.821 -324 1556.821 -288 1632.821 -288 1632.821 -324"/><text x="1594.821" y="-302.9" fill="#000" font-family="Times,serif" font-size="12" text-anchor="middle">libunwind</text></g><g id="edge58" class="edge"><title>node2248-&gt;node2196</title><path fill="none" stroke="#000" d="M1662.2098,-364.4574C1651.3211,-355.0118 1636.4736,-342.132 1623.4862,-330.8658"/><polygon fill="#000" stroke="#000" points="1625.54 -328.014 1615.692 -324.105 1620.953 -333.301 1625.54 -328.014"/></g><g id="edge55" class="edge"><title>node2178-&gt;node2239</title><path fill="none" stroke="#000" d="M1650.6352,-292.1177C1626.3669,-279.7254 1590.9187,-261.6242 1566.0482,-248.9243"/><polygon fill="#000" stroke="#000" points="1567.577 -245.775 1557.08 -244.345 1564.394 -252.01 1567.577 -245.775"/></g><g id="edge57" class="edge"><title>node2185-&gt;node2239</title><path fill="none" stroke="#000" d="M1722.5462,-291.4417C1719.6179,-290.2257 1716.6777,-289.0585 1713.8214,-288 1660.8109,-268.355 1645.8031,-268.7939 1591.8214,-252 1585.2469,-249.9546 1578.2509,-247.7144 1571.5303,-245.5303"/><polygon fill="#000" stroke="#000" points="1572.554 -242.183 1561.962 -242.399 1570.378 -248.836 1572.554 -242.183"/></g><g id="edge59" class="edge"><title>node2196-&gt;node2239</title><path fill="none" stroke="#000" d="M1580.1856,-287.8314C1572.4252,-278.1977 1562.8287,-266.2849 1554.6379,-256.117"/><polygon fill="#000" stroke="#000" points="1557.158 -253.667 1548.159 -248.075 1551.707 -258.058 1557.158 -253.667"/></g><g id="node48" class="node"><title>node2247</title><polygon fill="none" stroke="#000" points="1004.821 -396 911.519 -378 1004.821 -360 1098.124 -378 1004.821 -396"/><text x="1004.821" y="-374.9" fill="#000" font-family="Times,serif" font-size="12" text-anchor="middle">oelibcxx-lvi-cfg</text></g><g id="node49" class="node"><title>node2172</title><polygon fill="none" stroke="#000" points="934.821 -324 842.821 -324 842.821 -288 934.821 -288 934.821 -324"/><text x="888.821" y="-302.9" fill="#000" font-family="Times,serif" font-size="12" text-anchor="middle">libcxx-lvi-cfg</text></g><g id="edge60" class="edge"><title>node2247-&gt;node2172</title><path fill="none" stroke="#000" d="M982.4555,-364.1177C966.7267,-354.355 945.2897,-341.0493 926.8961,-329.6325"/><polygon fill="#000" stroke="#000" points="928.491 -326.503 918.149 -324.204 924.8 -332.451 928.491 -326.503"/></g><g id="node50" class="node"><title>node2184</title><polygon fill="none" stroke="#000" points="1056.321 -324 953.321 -324 953.321 -288 1056.321 -288 1056.321 -324"/><text x="1004.821" y="-302.9" fill="#000" font-family="Times,serif" font-size="12" text-anchor="middle">libcxxrt-lvi-cfg</text></g><g id="edge62" class="edge"><title>node2247-&gt;node2184</title><path fill="none" stroke="#000" d="M1004.8214,-359.8314C1004.8214,-352.131 1004.8214,-342.9743 1004.8214,-334.4166"/><polygon fill="#000" stroke="#000" points="1008.322 -334.413 1004.821 -324.413 1001.322 -334.413 1008.322 -334.413"/></g><g id="node51" class="node"><title>node2195</title><polygon fill="none" stroke="#000" points="1190.821 -324 1074.821 -324 1074.821 -288 1190.821 -288 1190.821 -324"/><text x="1132.821" y="-302.9" fill="#000" font-family="Times,serif" font-size="12" text-anchor="middle">libunwind-lvi-cfg</text></g><g id="edge64" class="edge"><title>node2247-&gt;node2195</title><path fill="none" stroke="#000" d="M1028.8973,-364.4574C1046.5607,-354.5217 1070.9794,-340.7861 1091.7088,-329.1259"/><polygon fill="#000" stroke="#000" points="1093.635 -332.058 1100.635 -324.105 1090.204 -325.957 1093.635 -332.058"/></g><g id="edge61" class="edge"><title>node2172-&gt;node2237</title><path fill="none" stroke="#000" d="M934.243,-287.8314C963.8689,-275.981 1002.1166,-260.6819 1030.2609,-249.4242"/><polygon fill="#000" stroke="#000" points="1031.779 -252.587 1039.764 -245.623 1029.179 -246.087 1031.779 -252.587"/></g><g id="edge63" class="edge"><title>node2184-&gt;node2237</title><path fill="none" stroke="#000" d="M1020.9713,-287.8314C1029.2696,-278.4958 1039.4703,-267.02 1048.3185,-257.0658"/><polygon fill="#000" stroke="#000" points="1051.035 -259.278 1055.062 -249.479 1045.803 -254.628 1051.035 -259.278"/></g><g id="edge65" class="edge"><title>node2195-&gt;node2237</title><path fill="none" stroke="#000" d="M1116.6715,-287.8314C1108.3733,-278.4958 1098.1726,-267.02 1089.3244,-257.0658"/><polygon fill="#000" stroke="#000" points="1091.84 -254.628 1082.581 -249.479 1086.608 -259.278 1091.84 -254.628"/></g><g id="node52" class="node"><title>node2108</title><polygon fill="none" stroke="#000" points="1724.435 -743.562 1685.821 -756 1647.208 -743.562 1647.244 -723.438 1724.399 -723.438 1724.435 -743.562"/><text x="1685.821" y="-734.9" fill="#000" font-family="Times,serif" font-size="12" text-anchor="middle">oesgx</text></g><g id="node53" class="node"><title>node2118</title><polygon fill="none" stroke="#000" points="2599.543 -167.562 2556.821 -180 2514.099 -167.562 2514.139 -147.438 2599.503 -147.438 2599.543 -167.562"/><text x="2556.821" y="-158.9" fill="#000" font-family="Times,serif" font-size="12" text-anchor="middle">oesign</text></g><g id="edge66" class="edge"><title>node2118-&gt;node20</title><path fill="none" stroke="#000" d="M2578.6768,-147.4297C2596.0507,-135.8472 2620.4043,-119.6114 2638.7866,-107.3566"/><polygon fill="#000" stroke="#000" points="2640.895 -110.157 2647.274 -101.698 2637.012 -104.333 2640.895 -110.157"/></g><g id="node54" class="node"><title>node187</title><polygon fill="none" stroke="#000" points="1867.321 -756 1742.321 -756 1742.321 -720 1867.321 -720 1867.321 -756"/><text x="1804.821" y="-734.9" fill="#000" font-family="Times,serif" font-size="12" text-anchor="middle">oesign-test-engine</text></g></g></svg>