<svg xmlns="http://www.w3.org/2000/svg" xmlns:ev="http://www.w3.org/2001/xml-events" xmlns:xlink="http://www.w3.org/1999/xlink" width="498.882" height="432.666" class="st23" color-interpolation-filters="sRGB" viewBox="0 0 374.161 324.5" xml:space="preserve"><style type="text/css">.st1{fill:#70ad47;stroke:#c7c8c8;stroke-width:.25}.st2{fill:#feffff;font-family:Calibri;font-size:.833336em}.st3{fill:#fec000;stroke:#c7c8c8;stroke-width:.25}.st4{fill:#fff;stroke:#fec000;stroke-width:.75}.st5{fill:#fec000;font-family:Calibri;font-size:.833336em}.st6{fill:#4672c4;stroke:#c7c8c8;stroke-width:.25}.st7{fill:#fff;stroke:#4672c4;stroke-width:.75}.st8{fill:#4672c4;font-family:Calibri;font-size:.833336em}.st10,.st9{stroke:#70ad47}.st9{marker-end:url(#mrkr4-33);stroke-linecap:round;stroke-linejoin:round;stroke-width:1}.st10{fill:#70ad47;fill-opacity:1;stroke-opacity:1;stroke-width:.28409090909091}.st11,.st12{stroke:#4672c4}.st11{marker-end:url(#mrkr4-39);stroke-linecap:round;stroke-linejoin:round;stroke-width:1}.st12{fill:#4672c4;fill-opacity:1;stroke-opacity:1;stroke-width:.28409090909091}.st13,.st14{stroke-dasharray:1,2;stroke-linecap:round;stroke-linejoin:round;stroke-width:1}.st13{marker-end:url(#mrkr4-39);stroke:#4672c4}.st14{marker-end:url(#mrkr4-85)}.st14,.st15,.st16{stroke:#fec000}.st15{fill:#fec000;fill-opacity:1;stroke-opacity:1;stroke-width:.28409090909091}.st16{marker-end:url(#mrkr4-85);stroke-width:1}.st16,.st17,.st18{stroke-linecap:round;stroke-linejoin:round}.st17{marker-end:url(#mrkr4-33);stroke:#70ad47;stroke-dasharray:1,2;stroke-width:1}.st18{marker-end:url(#mrkr4-106);stroke:#000;stroke-width:.239976}.st19{fill:#000;fill-opacity:1;stroke:#000;stroke-opacity:1;stroke-width:.086948582161584}.st20{fill:#fff;stroke:none;stroke-linecap:butt;stroke-width:7.2}.st21{fill:#3f3f3f;font-family:Calibri;font-size:.666664em}.st22{marker-end:url(#mrkr4-106);stroke:#000;stroke-dasharray:.239976,.479952;stroke-linecap:round;stroke-linejoin:round;stroke-width:.239976}.st23{fill:none;fill-rule:evenodd;font-size:12px;overflow:visible;stroke-linecap:square;stroke-miterlimit:3}</style><defs id="Markers"><g id="lend4"><path d="M 2 1 L 0 0 L 2 -1 L 2 1" style="stroke:none"/></g><marker id="mrkr4-33" class="st10" markerUnits="strokeWidth" orient="auto" overflow="visible" refX="-7.04"><use transform="scale(-3.52,-3.52)" xlink:href="#lend4"/></marker><marker id="mrkr4-39" class="st12" markerUnits="strokeWidth" orient="auto" overflow="visible" refX="-7.04"><use transform="scale(-3.52,-3.52)" xlink:href="#lend4"/></marker><marker id="mrkr4-85" class="st15" markerUnits="strokeWidth" orient="auto" overflow="visible" refX="-7.04"><use transform="scale(-3.52,-3.52)" xlink:href="#lend4"/></marker><marker id="mrkr4-106" class="st19" markerUnits="strokeWidth" orient="auto" overflow="visible" refX="-23.002"><use transform="scale(-11.501050105011,-11.501050105011)" xlink:href="#lend4"/></marker></defs><g><title>Page-1</title><g id="shape63-1" transform="translate(0.25,-297.25)"><title>Rectangle.63</title><desc>Enclave app</desc><rect width="93.24" height="27" x="0" y="297.5" class="st1"/><text x="22.37" y="314" class="st2">Enclave app</text></g><g id="shape106-4" transform="translate(126.25,-148.75)"><title>Rectangle.106</title><desc>mbedcrypto</desc><rect width="93.24" height="27" x="0" y="297.5" class="st3"/><text x="21.82" y="314" class="st2">mbedcrypto</text></g><g id="shape107-7" transform="translate(243.25,-148.75)"><title>Rectangle.107</title><desc>openssl</desc><rect width="93.24" height="27" x="0" y="297.5" class="st4"/><text x="31.18" y="314" class="st5">openssl</text></g><g id="shape109-10" transform="translate(126.25,-198.25)"><title>Rectangle.109</title><desc>oecryptombed</desc><rect width="93.24" height="27" x="0" y="297.5" class="st6"/><text x="16.7" y="314" class="st2">oecryptombed</text></g><g id="shape110-13" transform="translate(243.25,-198.25)"><title>Rectangle.110</title><desc>oecryptoopenssl</desc><rect width="93.24" height="27" x="0" y="297.5" class="st7"/><text x="13" y="314" class="st8">oecryptoopenssl</text></g><g id="shape111-16" transform="translate(126.25,-247.75)"><title>Rectangle.111</title><desc>oeenclave</desc><rect width="93.24" height="27" x="0" y="297.5" class="st6"/><text x="25.98" y="314" class="st2">oeenclave</text></g><g id="shape112-19" transform="translate(126.25,-99.25)"><title>Rectangle.112</title><desc>oelibc</desc><rect width="93.24" height="27" x="0" y="297.5" class="st6"/><text x="34.46" y="314" class="st2">oelibc</text></g><g id="shape113-22" transform="translate(126.25,-49.75)"><title>Rectangle.113</title><desc>oesyscall</desc><rect width="93.24" height="27" x="0" y="297.5" class="st6"/><text x="28.52" y="314" class="st2">oesyscall</text></g><g id="shape114-25" transform="translate(126.25,-0.25)"><title>Rectangle.114</title><desc>oecore</desc><rect width="93.24" height="27" x="0" y="297.5" class="st6"/><text x="32.51" y="314" class="st2">oecore</text></g><g id="shape115-28" transform="translate(46.87,-297.25)"><title>Dynamic connector.115</title><path d="M0 324.5 L0 338 L126 338 L126 339.96" class="st9"/></g><g id="shape117-34" transform="translate(163.87,-247.75)"><title>Dynamic connector.117</title><path d="M9 324.5 L9 339.96" class="st11"/></g><g id="shape163-40" transform="translate(46.87,-297.25)"><title>Dynamic connector.163</title><path d="M0 324.5 L0 459.5 L72.34 459.5" class="st9"/></g><g id="shape164-45" transform="translate(46.87,-297.25)"><title>Dynamic connector.164</title><path d="M0 324.5 L0 509 L72.34 509" class="st9"/></g><g id="shape165-50" transform="translate(46.87,-297.25)"><title>Dynamic connector.165</title><path d="M0 324.5 L0 608 L72.34 608" class="st9"/></g><g id="shape166-55" transform="translate(163.87,-198.25)"><title>Dynamic connector.166</title><path d="M9 324.5 L9 339.96" class="st11"/></g><g id="shape167-60" transform="translate(219.49,-112.75)"><title>Dynamic connector.167</title><path d="M0 324.5 L13.5 324.5 L13.5 401 L-46.62 401 L-46.62 402.96" class="st11"/></g><g id="shape168-65" transform="translate(163.87,-99.25)"><title>Dynamic connector.168</title><path d="M9 324.5 L9 339.96" class="st11"/></g><g id="shape169-70" transform="translate(163.87,-49.75)"><title>Dynamic connector.169</title><path d="M9 324.5 L9 339.96" class="st11"/></g><g id="shape170-75" transform="translate(219.49,-261.25)"><title>Dynamic connector.170</title><path d="M0 324.5 L70.38 324.5 L70.38 353.46" class="st13"/></g><g id="shape171-80" transform="translate(289.87,-148.75)"><title>Dynamic connector.171</title><path d="M0 324.5 L0 338 L-117 338 L-117 339.96" class="st14"/></g><g id="shape172-86" transform="translate(163.87,-148.75)"><title>Dynamic connector.172</title><path d="M9 324.5 L9 339.96" class="st16"/></g><g id="shape173-91" transform="translate(280.87,-198.25)"><title>Dynamic connector.173</title><path d="M9 324.5 L9 339.96" class="st13"/></g><g id="shape174-96" transform="translate(93.49,-310.75)"><title>Dynamic connector.174</title><path d="M0 324.5 L256.5 324.5 L256.5 473 L250.04 473" class="st17"/></g><g id="shape1003-101" transform="translate(250.99,-36.25)"><title>Line connector.1003</title><desc>Existing dependency</desc><path d="M0 324.5 L111.48 324.5" class="st18"/><rect width="66.589" height="9.6" x="25.206" y="319.7" class="st20"/><text x="25.21" y="326.9" class="st21">Existing dependency</text></g><g id="shape1004-109" transform="translate(250.99,-9.25)"><title>Line connector.1004</title><desc>Proposed additional option</desc><path d="M0 324.5 L111.48 324.5" class="st22"/><rect width="88.53" height="9.6" x="14.235" y="319.7" class="st20"/><text x="14.23" y="326.9" class="st21">Proposed additional option</text></g></g></svg>