<svg xmlns="http://www.w3.org/2000/svg" xmlns:ev="http://www.w3.org/2001/xml-events" xmlns:xlink="http://www.w3.org/1999/xlink" width="692" height="242" class="st17" color-interpolation-filters="sRGB" viewBox="0 0 519 181.5" xml:space="preserve"><style type="text/css">.st1{fill:#fff;stroke:#70ad47;stroke-dasharray:11.25,6.75;stroke-width:.75}.st2{fill:#70ad47;font-family:Calibri;font-size:.833336em}.st3{fill:#fff;stroke:#ed7d31;stroke-dasharray:11.25,6.75;stroke-width:.75}.st4{fill:#ed7d31;font-family:Calibri;font-size:.833336em}.st5,.st6{fill:#fff;stroke-width:.75}.st5{stroke:#e8ebf4;stroke-dasharray:5.25,3.75}.st6{stroke:#4672c4}.st7{fill:#4672c4;font-family:Calibri;font-size:.833336em}.st8{fill:#fff;stroke:#ed7d31;stroke-width:.75}.st9{fill:#ed7d31;font-family:Segoe UI Emoji;font-size:.833336em}.st10{font-family:Calibri}.st10,.st11{font-size:1em}.st12,.st13{stroke:#4672c4}.st12{marker-end:url(#mrkr4-43);stroke-linecap:round;stroke-linejoin:round;stroke-width:1}.st13{fill:#4672c4;fill-opacity:1;stroke-opacity:1;stroke-width:.28409090909091}.st14{fill:#fff;stroke:none;stroke-linecap:butt;stroke-width:7.2}.st15{fill:#3d64ac;font-family:Calibri;font-size:.666664em}.st16{fill:#fff;stroke:none;stroke-linecap:butt}.st17{fill:none;fill-rule:evenodd;font-size:12px;overflow:visible;stroke-linecap:square;stroke-miterlimit:3}</style><defs id="Markers"><g id="lend4"><path d="M 2 1 L 0 0 L 2 -1 L 2 1" style="stroke:none"/></g><marker id="mrkr4-43" class="st13" markerUnits="strokeWidth" orient="auto" overflow="visible" refX="-7.04"><use transform="scale(-3.52,-3.52)" xlink:href="#lend4"/></marker></defs><g><title>Page-1</title><g id="shape1015-1" transform="translate(0.75,-0.75)"><title>Rectangle.1015</title><desc>Dev Environment</desc><path d="M0 181.5 L324 181.5 L324 1.5 L0 1.5 L0 181.5 Z" class="st1"/><text x="4" y="14.5" class="st2">Dev Environment</text></g><g id="shape1014-4" transform="translate(324.75,-0.75)"><title>Rectangle.1014</title><desc>Signing Authority</desc><path d="M0 181.5 L193.5 181.5 L193.5 1.5 L0 1.5 L0 181.5 Z" class="st3"/><text x="4" y="14.5" class="st4">Signing Authority</text></g><g id="shape1003-7" transform="translate(12,-95.25)"><title>Rectangle.1003</title><path d="M0 181.5 L103.5 181.5 L103.5 114 L0 114 L0 181.5 Z" class="st5"/></g><g id="shape8-9" transform="translate(158.25,-33.375)"><title>Rectangle.8</title><desc>oesign</desc><rect width="54" height="29.25" x="0" y="152.25" class="st6"/><text x="13.79" y="169.88" class="st7">oesign</text></g><g id="shape9-12" transform="translate(68.25,-104.25)"><title>Single Snip Corner Rectangle.9</title><desc>enclave</desc><path d="M0 181.5 L40.5 181.5 L40.5 143.25 L29.25 132 L0 132 L0 181.5 Z" class="st6"/><text x="4.73" y="159.75" class="st7">enclave</text></g><g id="shape10-15" transform="translate(459.75,-104.25)"><title>Single Snip Corner Rectangle.10</title><desc>🗝 signing key</desc><path d="M0 181.5 L40.5 181.5 L40.5 143.25 L29.25 132 L0 132 L0 181.5 Z" class="st8"/><text x="14.09" y="147.83" class="st9">🗝<tspan class="st10"> </tspan><tspan x="6.04" class="st10" dy="1.208em">signing </tspan><tspan x="13.23" class="st10" dy="1.2em">key</tspan></text></g><g id="shape11-21" transform="translate(248.25,-104.25)"><title>Single Snip Corner Rectangle.11</title><desc>digest</desc><path d="M0 181.5 L40.5 181.5 L40.5 143.25 L29.25 132 L0 132 L0 181.5 Z" class="st6"/><text x="8" y="159.75" class="st7">digest</text></g><g id="shape12-24" transform="translate(18.75,-104.25)"><title>Single Snip Corner Rectangle.12</title><desc>config</desc><path d="M0 181.5 L40.5 181.5 L40.5 143.25 L29.25 132 L0 132 L0 181.5 Z" class="st6"/><text x="7.85" y="159.75" class="st7">config</text></g><g id="shape14-27" transform="translate(363,-114.375)"><title>Rectangle.14</title><desc>signing backend</desc><rect width="54" height="29.25" x="0" y="152.25" class="st6"/><text x="12.79" y="163.88" class="st7">signing<tspan x="9.85" class="st11" dy="1.2em">backend</tspan></text></g><g id="shape15-31" transform="translate(158.25,-114.375)"><title>Rectangle.15</title><desc>oesign</desc><rect width="54" height="29.25" x="0" y="152.25" class="st6"/><text x="13.79" y="169.88" class="st7">oesign</text></g><g id="shape21-34" transform="translate(68.25,-23.25)"><title>Single Snip Corner Rectangle.21</title><desc>signed enclave</desc><path d="M0 181.5 L40.5 181.5 L40.5 143.25 L29.25 132 L0 132 L0 181.5 Z" class="st6"/><text x="7.05" y="153.75" class="st7">signed<tspan x="4.73" class="st11" dy="1.2em">enclave</tspan></text></g><g id="shape1004-38" transform="translate(115.5,-120)"><title>Dynamic connector.1004</title><desc>digest</desc><path d="M0 172.5 L35.71 172.5" class="st12"/><rect width="19.593" height="9.6" x="11.578" y="167.7" class="st14"/><text x="11.58" y="174.9" class="st15">digest</text></g><g id="shape1005-46" transform="translate(212.25,-120)"><title>Dynamic connector.1005</title><path d="M0 172.5 L28.96 172.5" class="st12"/></g><g id="shape1006-51" transform="translate(288.75,-138)"><title>Dynamic connector.1006</title><desc>sign</desc><path d="M0 190.5 L67.21 190.5" class="st12"/><rect width="12.933" height="9.6" x="30.658" y="185.7" class="st14"/><text x="30.66" y="192.9" class="st15">sign</text></g><g id="shape1007-58" transform="translate(459.75,-120)"><title>Dynamic connector.1007</title><desc>sign</desc><path d="M0 172.5 L-35.71 172.5" class="st12"/><rect width="12.933" height="9.6" x="-27.842" y="167.7" class="st14"/><text x="-27.84" y="174.9" class="st15">sign</text></g><g id="group1009-65" transform="translate(338.25,-14.25)"><title>Sheet.1009</title><g id="shape1008-66"><title>Rectangle.1008</title><path d="M0 181.5 L103.5 181.5 L103.5 114 L0 114 L0 181.5 Z" class="st5"/></g><g id="shape16-68" transform="translate(56.25,-9)"><title>Single Snip Corner Rectangle.16</title><desc>public key cert</desc><path d="M0 181.5 L40.5 181.5 L40.5 143.25 L29.25 132 L0 132 L0 181.5 Z" class="st6"/><text x="7.96" y="153.75" class="st7">public <tspan x="4.08" class="st11" dy="1.2em">key cert</tspan></text></g><g id="shape17-72" transform="translate(6.75,-9)"><title>Single Snip Corner Rectangle.17</title><desc>signed digest</desc><path d="M0 181.5 L40.5 181.5 L40.5 143.25 L29.25 132 L0 132 L0 181.5 Z" class="st6"/><text x="7.05" y="153.75" class="st7">signed <tspan x="8" class="st11" dy="1.2em">digest</tspan></text></g></g><g id="shape1010-76" transform="translate(381,-114.375)"><title>Dynamic connector.1010</title><path d="M9 181.5 L9 207.08" class="st12"/></g><g id="shape1011-81" transform="translate(338.25,-39)"><title>Dynamic connector.1011</title><desc>sign</desc><path d="M0 172.5 L-118.96 172.5" class="st12"/><rect width="12.933" height="9.6" x="-69.467" y="167.7" class="st16"/><text x="-69.47" y="174.9" class="st15">sign</text></g><g id="shape1012-88" transform="translate(158.25,-39)"><title>Dynamic connector.1012</title><path d="M0 172.5 L-42.46 172.5" class="st12"/></g><g id="shape1013-93" transform="translate(63.75,-95.25)"><title>Dynamic connector.1013</title><desc>sign</desc><path d="M0 181.5 L0 188.25 L121.5 188.25 L121.5 207.08" class="st12"/><rect width="12.933" height="9.6" x="63.846" y="183.45" class="st16"/><text x="63.85" y="190.65" class="st15">sign</text></g></g></svg>